<!-- Created by Olena Panasovska from the Noun Project -->
<svg xmlns="http://www.w3.org/2000/svg" xmlns:xlink="http://www.w3.org/1999/xlink" xml:space="preserve" version="1.1" style="shape-rendering:geometricPrecision;text-rendering:geometricPrecision;image-rendering:optimizeQuality;" viewBox="0 0 60000 75000" x="0px" y="0px" fill-rule="evenodd" clip-rule="evenodd"><defs><style type="text/css">
   
    .fil0 {fill:black;fill-rule:nonzero}
   
  </style></defs><g><path class="fil0" d="M29603 19857c3,-32 10,-62 20,-91l1 -2 0 0 1 -3c20,-54 50,-103 89,-143l0 0 4 -4 4 -4 0 0c40,-39 88,-70 143,-89l3 -1 0 0 2 -1c37,-13 77,-20 118,-22l0 0c3,0 6,0 9,0l4 0 4 0c3,0 6,0 9,0l0 0c41,1 80,9 118,22l2 1 0 0 3 1c54,20 103,50 143,89l0 0 4 4 4 4 0 0c39,40 70,88 89,143l1 3 0 0 1 2c10,29 17,60 20,91 101,881 428,1880 1030,2628 460,571 1085,993 1899,1089 219,25 377,223 352,442 -25,219 -223,377 -442,352 -33,-4 -66,-8 -98,-13l-186 1291c531,-568 1179,-964 1864,-1195 610,-205 1248,-279 1859,-225 617,54 1210,237 1725,545 1037,621 1741,1732 1657,3292 2,439 -87,843 -244,1197 -195,440 -495,803 -854,1060 -366,261 -795,410 -1242,415 -289,3 -582,-54 -866,-180 -202,-89 -294,-325 -205,-527 89,-202 325,-294 527,-205 180,80 362,116 538,114 277,-3 549,-99 785,-268 244,-174 449,-425 585,-732 114,-257 179,-551 178,-869 -1,-14 -1,-29 0,-43 67,-1227 -473,-2093 -1269,-2570 -406,-243 -883,-389 -1384,-432 -507,-44 -1035,16 -1537,185 -1192,401 -2249,1418 -2560,3109 -40,217 -247,360 -464,320 -217,-40 -360,-247 -320,-464 38,-206 86,-404 142,-593l495 -3428c-632,-245 -1146,-660 -1555,-1167 -343,-426 -609,-917 -805,-1426 -196,509 -462,1001 -805,1426 -408,507 -923,922 -1555,1167l495 3428c56,190 104,387 142,593 40,217 -104,424 -320,464 -217,40 -424,-104 -464,-320 -312,-1691 -1368,-2708 -2560,-3109 -502,-169 -1030,-229 -1537,-185 -501,44 -978,189 -1384,432 -797,477 -1336,1343 -1269,2570 1,15 1,29 0,43 -1,318 64,612 178,869 136,307 341,558 585,732 237,169 508,265 785,268 176,2 358,-34 538,-114 202,-89 438,3 527,205 89,202 -3,438 -205,527 -284,126 -577,183 -866,180 -446,-5 -875,-154 -1242,-415 -359,-256 -659,-620 -854,-1060 -157,-353 -246,-758 -244,-1197 -84,-1560 620,-2671 1657,-3292 514,-308 1108,-491 1725,-545 611,-53 1249,20 1859,225 685,231 1333,627 1864,1195l-186 -1291c-32,5 -65,9 -98,13 -219,25 -417,-132 -442,-352 -25,-219 132,-417 352,-442 814,-96 1439,-518 1899,-1089 602,-748 929,-1747 1030,-2628zm-10742 12939c138,0 250,112 250,250 0,138 -112,250 -250,250l-16550 0c-138,0 -250,-112 -250,-250 0,-138 112,-250 250,-250l16550 0zm4604 1614c138,0 250,112 250,250 0,138 -112,250 -250,250l-16550 0c-138,0 -250,-112 -250,-250 0,-138 112,-250 250,-250l16550 0zm0 -2512l-22979 0c-221,0 -400,-179 -400,-400 0,-221 179,-400 400,-400l22979 0c479,0 892,-138 1175,-392 256,-230 410,-567 410,-994 0,-452 -183,-862 -480,-1158 -296,-296 -706,-480 -1158,-480 -107,0 -206,9 -296,25 -95,17 -190,44 -283,79 -206,78 -436,-27 -514,-233 -78,-206 27,-436 233,-514 133,-50 275,-90 424,-117 147,-27 293,-41 437,-41 673,0 1282,273 1723,714 441,441 714,1050 714,1723 0,669 -254,1208 -675,1587 -431,388 -1033,599 -1709,599zm-2579 1527c-220,0 -398,-178 -398,-398 0,-220 178,-398 398,-398l2962 -2c251,0 492,11 724,34 1502,145 2672,742 3469,1629 800,889 1220,2063 1221,3360 0,279 -68,383 75,620l644 1074 679 -1083c145,-232 77,-335 77,-611 1,-1297 421,-2471 1221,-3360 798,-887 1968,-1484 3469,-1629 232,-22 473,-34 724,-34l2962 2c220,0 398,178 398,398 0,220 -178,398 -398,398l-2962 -2c-223,0 -439,10 -649,30 -1288,124 -2282,626 -2951,1369 -667,741 -1017,1729 -1017,2825 0,219 74,602 -34,774l-1189 1895c-32,51 -77,96 -133,130 -189,113 -434,51 -547,-138l-1137 -1895c-101,-168 -29,-552 -29,-766 -1,-1097 -351,-2084 -1017,-2825 -669,-743 -1663,-1245 -2951,-1369 -210,-20 -427,-31 -649,-30l-2962 2zm20253 -129c-138,0 -250,-112 -250,-250 0,-138 112,-250 250,-250l16550 0c138,0 250,112 250,250 0,138 -112,250 -250,250l-16550 0zm-4604 1614c-138,0 -250,-112 -250,-250 0,-138 112,-250 250,-250l16550 0c138,0 250,112 250,250 0,138 -112,250 -250,250l-16550 0zm0 -3812l22979 0c221,0 400,179 400,400 0,221 -179,400 -400,400l-22979 0c-676,0 -1278,-210 -1709,-599 -422,-380 -675,-918 -675,-1587 0,-673 273,-1282 714,-1723 441,-441 1050,-714 1723,-714 144,0 290,14 437,41 149,27 290,66 424,117 206,78 310,308 233,514 -78,206 -308,310 -514,233 -93,-35 -188,-62 -283,-79 -91,-16 -190,-25 -296,-25 -452,0 -862,183 -1158,480 -296,296 -480,706 -480,1158 0,427 154,763 410,994 283,255 696,392 1175,392z"/></g></svg>
